<svg version="1.1" xmlns="http://www.w3.org/2000/svg" style="display: block;" viewBox="0 0 2048 2048" width="1024" height="1024" preserveAspectRatio="none">
<path transform="translate(0,0)" fill="rgb(254,250,230)" d="M 0 0 L 2048 0 L 2048 2048 L 0 2048 L 0 0 z"/>
<path transform="translate(0,0)" fill="rgb(252,238,201)" d="M 1029.01 943.501 C 1061.76 877.343 1125.78 831.106 1194.53 807.796 C 1227.25 796.685 1260.93 788.666 1295.13 783.844 C 1310.03 781.731 1336.44 779.551 1349.96 776.866 L 1350.99 1209.52 C 1274.3 1219.95 1191.74 1246.22 1128.26 1291.47 C 1122.17 1295.81 1074.61 1340.42 1072.45 1345.34 L 1073.41 1346.01 C 1087.34 1334.07 1098.36 1321.98 1114.48 1312.46 C 1178.46 1274.68 1247.91 1249.2 1320.89 1235.23 C 1336.16 1232.32 1352.84 1228.37 1368.07 1227.78 C 1369.33 1214.54 1368.54 1199.09 1368.6 1185.5 C 1368.97 1158.23 1369.09 1130.96 1368.95 1103.68 C 1368.88 1017.21 1368.02 929.327 1368.97 842.958 C 1391.72 843.019 1416.07 842.555 1438.6 843.039 C 1437.48 884.33 1437.32 933.165 1438.22 974.507 C 1461.96 1000.51 1495.26 1034.03 1520.55 1059 C 1501.52 1077.6 1482.47 1095.68 1464.22 1115.13 C 1455.77 1124.14 1445.49 1133.36 1438.26 1143.22 C 1437.93 1197.43 1437.97 1251.65 1438.4 1305.86 C 1335.09 1296.95 1190.69 1299.62 1107.46 1369.5 C 1099.99 1375.77 1087.75 1387.49 1082.48 1395.74 C 1079.29 1449.08 1021.2 1470.52 984.379 1433.24 C 969.768 1418.45 977.623 1401.09 962.46 1383.89 C 911.811 1326.45 827.359 1308.66 754.161 1302.18 C 705.409 1298.21 661.312 1302.71 614.046 1305.05 C 614.208 1250.15 615.204 1197.75 613.744 1142.68 C 587.167 1113.9 559.862 1085.8 531.857 1058.41 C 549.008 1042.56 565.57 1025.59 581.867 1008.85 C 591.407 999.045 606.393 985.183 614.322 974.768 C 614.426 931.369 613.168 885.181 614.222 842.194 C 637.737 841.758 661.26 842.022 684.759 842.985 L 684.686 1005.04 C 684.193 1076.55 682.756 1156.53 685.059 1227.68 C 777.844 1243.42 875.597 1268.35 954.546 1322.43 C 965.458 1329.91 974.907 1336.91 982.927 1347.59 L 983.348 1344.12 C 980.842 1342.01 974.879 1334.17 972.399 1331.16 C 924.972 1273.6 846.245 1244.07 776.299 1225.47 C 756.809 1220.29 723.318 1212.94 703.315 1210.9 C 702.407 1191.23 702.964 1167.75 702.964 1147.7 L 703.028 1035.37 C 703.09 950.697 701.848 862.606 703.831 778.21 C 716.962 779.984 730.59 780.48 744.213 782.5 C 795.035 790.037 851.877 802.857 898.511 824.155 C 940.853 843.492 981.556 874.555 1007.51 913.07 C 1014.22 923.035 1020.64 932.491 1024.76 943.897 C 1022.65 954.263 1021.11 963.201 1020.97 973.787 C 1021.5 986.441 1023.31 998.763 1023.75 1011 C 1024.11 1020.97 1022.68 1033.65 1022.67 1044 C 1022.54 1066.57 1022.77 1089.1 1022.33 1111.68 C 1022.17 1119.7 1024.54 1128.47 1024.52 1136.79 C 1024.41 1210.98 1023.45 1284.97 1021.66 1359.12 C 1021.61 1361.18 1025.79 1365 1025.84 1369.91 C 1027.54 1368.33 1033.7 1354.9 1034.81 1351.87 C 1035.09 1351.08 1034.31 1344.76 1034.12 1343.34 L 1033.93 1344.38 C 1029.58 1323.02 1030.85 1287.86 1031.35 1265.75 C 1031.63 1247.44 1031.8 1229.14 1031.84 1210.83 L 1031.76 977.801 C 1031.5 965.892 1030.85 955.261 1029.01 943.501 z"/>
<path transform="translate(0,0)" fill="rgb(238,219,175)" d="M 1029.01 943.501 C 1061.76 877.343 1125.78 831.106 1194.53 807.796 C 1227.25 796.685 1260.93 788.666 1295.13 783.844 C 1310.03 781.731 1336.44 779.551 1349.96 776.866 L 1350.99 1209.52 C 1274.3 1219.95 1191.74 1246.22 1128.26 1291.47 C 1122.17 1295.81 1074.61 1340.42 1072.45 1345.34 L 1073.41 1346.01 C 1087.34 1334.07 1098.36 1321.98 1114.48 1312.46 C 1178.46 1274.68 1247.91 1249.2 1320.89 1235.23 C 1336.16 1232.32 1352.84 1228.37 1368.07 1227.78 C 1369.33 1214.54 1368.54 1199.09 1368.6 1185.5 C 1368.97 1158.23 1369.09 1130.96 1368.95 1103.68 C 1368.88 1017.21 1368.02 929.327 1368.97 842.958 C 1391.72 843.019 1416.07 842.555 1438.6 843.039 C 1437.48 884.33 1437.32 933.165 1438.22 974.507 C 1461.96 1000.51 1495.26 1034.03 1520.55 1059 C 1501.52 1077.6 1482.47 1095.68 1464.22 1115.13 C 1455.77 1124.14 1445.49 1133.36 1438.26 1143.22 C 1437.93 1197.43 1437.97 1251.65 1438.4 1305.86 C 1335.09 1296.95 1190.69 1299.62 1107.46 1369.5 C 1099.99 1375.77 1087.75 1387.49 1082.48 1395.74 C 1079.29 1449.08 1021.2 1470.52 984.379 1433.24 C 969.768 1418.45 977.623 1401.09 962.46 1383.89 C 911.811 1326.45 827.359 1308.66 754.161 1302.18 C 705.409 1298.21 661.312 1302.71 614.046 1305.05 C 614.208 1250.15 615.204 1197.75 613.744 1142.68 C 587.167 1113.9 559.862 1085.8 531.857 1058.41 C 549.008 1042.56 565.57 1025.59 581.867 1008.85 C 591.407 999.045 606.393 985.183 614.322 974.768 C 614.426 931.369 613.168 885.181 614.222 842.194 C 637.737 841.758 661.26 842.022 684.759 842.985 L 684.686 1005.04 C 684.193 1076.55 682.756 1156.53 685.059 1227.68 C 777.844 1243.42 875.597 1268.35 954.546 1322.43 C 965.458 1329.91 974.907 1336.91 982.927 1347.59 L 983.348 1344.12 C 980.842 1342.01 974.879 1334.17 972.399 1331.16 C 924.972 1273.6 846.245 1244.07 776.299 1225.47 C 756.809 1220.29 723.318 1212.94 703.315 1210.9 C 702.407 1191.23 702.964 1167.75 702.964 1147.7 L 703.028 1035.37 C 703.09 950.697 701.848 862.606 703.831 778.21 C 716.962 779.984 730.59 780.48 744.213 782.5 C 795.035 790.037 851.877 802.857 898.511 824.155 C 940.853 843.492 981.556 874.555 1007.51 913.07 C 1014.22 923.035 1020.64 932.491 1024.76 943.897 C 1022.65 954.263 1021.11 963.201 1020.97 973.787 C 1020.25 978.697 1019.95 982.71 1019.61 987.615 C 996.413 921.09 952.431 884.254 890.452 854.271 C 852.867 836.089 774.785 814.724 733.007 813.653 L 732.526 1089.93 C 732.544 1121.86 731.68 1153.78 732.105 1185.69 C 828.586 1198.96 931.868 1231.55 992.971 1312.59 C 1007.87 1332.28 1019.09 1354.49 1026.1 1378.17 C 1074.06 1248.49 1197.08 1208.22 1320.3 1183.65 L 1320.2 949.188 C 1320.21 905.137 1319.26 856.607 1320.91 813.038 C 1211.3 824.876 1103.65 861.976 1044.98 959.938 C 1041.88 965.126 1036.6 980.496 1033.56 982.835 C 1032.8 980.947 1032.33 979.751 1031.76 977.801 C 1031.5 965.892 1030.85 955.261 1029.01 943.501 z"/>
<path transform="translate(0,0)" fill="rgb(254,250,230)" d="M 612.77 1018.81 C 615.423 1022.7 614.067 1090.05 613.988 1100.51 C 607.794 1094.35 602.433 1089.06 596.755 1082.37 C 590.612 1075.95 579.019 1064.25 574.231 1057.53 L 612.77 1018.81 z"/>
<path transform="translate(0,0)" fill="rgb(254,250,230)" d="M 1438.25 1020.65 C 1445.25 1025.85 1469.35 1051.72 1476.38 1058.97 L 1456.64 1078.92 C 1450.21 1085.17 1444.4 1091.59 1438.34 1098.19 C 1437.39 1074.13 1438.12 1045.03 1438.25 1020.65 z"/>
<path transform="translate(0,0)" fill="rgb(238,219,175)" d="M 1024.72 559.721 C 1031.78 564.596 1072.24 608.708 1081.4 617.745 C 1136.15 671.782 1189.46 728.251 1244.7 781.709 C 1239.28 782.93 1224.32 786.579 1218.95 786.78 C 1209.19 787.145 1196.69 786.1 1186.41 786.013 L 1107.17 785.824 C 1106.98 798.046 1106.64 810.266 1106.15 822.48 L 1129.13 825.651 C 1118.81 833.038 1106.32 839.962 1095.25 847.743 C 1090 842.584 1085.1 838.141 1080.89 832.086 C 1080.36 816.304 1079.92 800.52 1079.55 784.733 C 1067.62 767.806 1041.64 737.601 1027.65 722.09 C 1025.85 720.105 1025.79 720.072 1023.56 718.574 C 1009.59 732.431 981.404 767.536 969.22 783.888 C 968.601 799.471 968.777 816.771 968.603 832.491 L 956.807 845.779 C 947.255 838.888 937.918 832.866 928.035 826.474 C 932.424 824.681 937.46 823.038 941.975 821.446 C 941.749 809.832 941.958 797.53 941.973 785.861 C 914.35 785.177 885.569 786.182 857.865 785.894 C 849.032 785.803 837.163 787.465 829.039 786.948 C 821.974 786.498 809.156 783.923 801.867 782.702 C 830.165 756.527 861.271 724.135 888.613 696.405 L 1024.72 559.721 z"/>
<path transform="translate(0,0)" fill="rgb(254,250,230)" d="M 1107.09 685.234 C 1112.79 687.517 1173.6 750.268 1183.35 759.849 C 1158.77 760.695 1131.69 760.108 1106.95 759.977 L 1107.09 685.234 z"/>
<path transform="translate(0,0)" fill="rgb(254,250,230)" d="M 940.712 684.882 C 943.211 689.438 941.958 750.709 941.904 759.954 C 919.512 760.757 890.583 759.838 867.454 759.946 L 867.17 759.798 L 866.83 758.628 L 940.712 684.882 z"/>
<path transform="translate(0,0)" fill="rgb(254,250,230)" d="M 1025.34 600.149 C 1030.95 604.849 1052.31 628.058 1056.98 633.711 C 1048.6 645.769 1033.7 663.453 1023.7 674.325 C 1020.08 671.968 995.939 639.476 992.163 634.14 C 998.999 625.545 1016.84 608.502 1025.34 600.149 z"/>
<path transform="translate(0,0)" fill="rgb(254,250,230)" d="M 1075.8 653.862 C 1083.33 662.388 1080.48 675.297 1080.63 686.436 C 1080.88 706.135 1080.91 726.01 1080.45 745.7 L 1065.73 727.491 C 1056.89 716.839 1048.36 707.19 1039.84 696.156 C 1051.12 681.961 1063.24 666.847 1075.8 653.862 z"/>
<path transform="translate(0,0)" fill="rgb(254,250,230)" d="M 972.632 653.437 C 977.525 656.482 1001.92 688.593 1008.24 696.045 C 1002.41 703.994 991.829 715.326 984.793 724.425 C 979.381 730.87 974.601 736.711 968.56 742.625 C 967.166 717.064 968.66 688.062 967.298 661.079 C 968.729 658.398 970.792 655.884 972.632 653.437 z"/>
</svg>